<svg width="80" height="80" viewBox="0 0 80 80" fill="none" xmlns="http://www.w3.org/2000/svg">
<path d="M27.5 7.5V17.5" stroke="black" stroke-width="2" stroke-linecap="round" stroke-linejoin="round"/>
<path d="M37.5 7.5V17.5" stroke="black" stroke-width="2" stroke-linecap="round" stroke-linejoin="round"/>
<path d="M47.5 7.5V17.5" stroke="black" stroke-width="2" stroke-linecap="round" stroke-linejoin="round"/>
<path d="M10 67.5H65" stroke="black" stroke-width="2" stroke-linecap="round" stroke-linejoin="round"/>
<path d="M26.0302 67.5012C21.2457 65.305 17.1921 61.7818 14.3506 57.3502C11.5091 52.9185 9.99915 47.7644 10 42.5V27.5H65V42.5C65.0009 47.7644 63.4909 52.9185 60.6493 57.3502C57.8078 61.782 53.7541 65.3051 48.9697 67.5013" stroke="black" stroke-width="2" stroke-linecap="round" stroke-linejoin="round"/>
<path d="M65 27.5C67.6521 27.5 70.1957 28.5536 72.0711 30.4289C73.9464 32.3043 75 34.8478 75 37.5V40C75 42.6522 73.9464 45.1957 72.0711 47.0711C70.1957 48.9464 67.6521 50 65 50H63.9442" stroke="black" stroke-width="2" stroke-linecap="round" stroke-linejoin="round"/>
<path d="M57.9993 50.9264C58.0112 52.5167 57.7059 54.0934 57.1012 55.5643C56.4965 57.0352 55.6046 58.3708 54.4776 59.4929C49.8594 64.103 42.3144 64.1548 37.6364 59.6053C35.9195 57.9368 34.741 55.7929 34.2524 53.4492C33.7637 51.1055 33.9873 48.6692 34.8944 46.4536C35.8015 44.238 37.3506 42.3444 39.3425 41.0162C41.3344 39.6881 43.678 38.9862 46.0721 39.0007C46.222 39.001 46.37 39.0349 46.505 39.1C46.6401 39.1651 46.7588 39.2597 46.8524 39.3768C46.9461 39.4939 47.0122 39.6306 47.046 39.7766C47.0798 39.9227 47.0803 40.0745 47.0477 40.2208C46.9165 40.8025 46.917 41.4061 47.0492 41.9875C47.1814 42.5689 47.4419 43.1134 47.8117 43.5811C48.1815 44.0488 48.6512 44.4279 49.1865 44.6907C49.7217 44.9534 50.3089 45.0932 50.9051 45.0997C51.1684 45.1019 51.4202 45.2074 51.6064 45.3936C51.7925 45.5797 51.8981 45.8316 51.9002 46.0948C51.9068 46.691 52.0465 47.2782 52.3093 47.8135C52.572 48.3487 52.9511 48.8184 53.4188 49.1882C53.8865 49.558 54.431 49.8185 55.0124 49.9507C55.5938 50.083 56.1974 50.0835 56.779 49.9523C56.9253 49.9196 57.077 49.9201 57.2229 49.9538C57.3689 49.9874 57.5055 50.0534 57.6226 50.1469C57.7397 50.2404 57.8343 50.359 57.8995 50.4939C57.9647 50.6288 57.9988 50.7766 57.9993 50.9264V50.9264Z" stroke="black" stroke-width="2" stroke-linecap="round" stroke-linejoin="round"/>
<path d="M49.5 58C50.3284 58 51 57.3284 51 56.5C51 55.6716 50.3284 55 49.5 55C48.6716 55 48 55.6716 48 56.5C48 57.3284 48.6716 58 49.5 58Z" fill="black"/>
<path d="M41.5 57C42.3284 57 43 56.3284 43 55.5C43 54.6716 42.3284 54 41.5 54C40.6716 54 40 54.6716 40 55.5C40 56.3284 40.6716 57 41.5 57Z" fill="black"/>
<path d="M40.5 50C41.3284 50 42 49.3284 42 48.5C42 47.6716 41.3284 47 40.5 47C39.6716 47 39 47.6716 39 48.5C39 49.3284 39.6716 50 40.5 50Z" fill="black"/>
<path d="M47 52C47.8284 52 48.5 51.3284 48.5 50.5C48.5 49.6716 47.8284 49 47 49C46.1716 49 45.5 49.6716 45.5 50.5C45.5 51.3284 46.1716 52 47 52Z" fill="black"/>
</svg>
