<svg width="80" height="80" viewBox="0 0 80 80" fill="none" xmlns="http://www.w3.org/2000/svg">
<path d="M65 45H15C13.6193 45 12.5 46.1193 12.5 47.5V62.5C12.5 63.8807 13.6193 65 15 65H65C66.3807 65 67.5 63.8807 67.5 62.5V47.5C67.5 46.1193 66.3807 45 65 45Z" stroke="black" stroke-width="2" stroke-linecap="round" stroke-linejoin="round"/>
<path d="M65 15H15C13.6193 15 12.5 16.1193 12.5 17.5V32.5C12.5 33.8807 13.6193 35 15 35H65C66.3807 35 67.5 33.8807 67.5 32.5V17.5C67.5 16.1193 66.3807 15 65 15Z" stroke="black" stroke-width="2" stroke-linecap="round" stroke-linejoin="round"/>
<path d="M56.25 28.75C58.3211 28.75 60 27.0711 60 25C60 22.9289 58.3211 21.25 56.25 21.25C54.1789 21.25 52.5 22.9289 52.5 25C52.5 27.0711 54.1789 28.75 56.25 28.75Z" fill="black"/>
<path d="M56.25 58.75C58.3211 58.75 60 57.0711 60 55C60 52.9289 58.3211 51.25 56.25 51.25C54.1789 51.25 52.5 52.9289 52.5 55C52.5 57.0711 54.1789 58.75 56.25 58.75Z" fill="black"/>
</svg>
